<svg width="80" height="80" viewBox="0 0 80 80" fill="none" xmlns="http://www.w3.org/2000/svg">
  <path d="M10 35L22 20L34 35" stroke="black" stroke-width="2" stroke-linecap="round" stroke-linejoin="round"/>
  <path d="M34 35L46 20L58 35" stroke="black" stroke-width="2" stroke-linecap="round" stroke-linejoin="round"/>
  <path d="M58 35L70 20L82 35" stroke="black" stroke-width="2" stroke-linecap="round" stroke-linejoin="round" transform="translate(-12, 0)"/>
  
  <rect x="10" y="35" width="60" height="2" fill="black"/>
  
  <line x1="12" y1="37" x2="12" y2="55" stroke="black" stroke-width="1.5"/>
  <line x1="28" y1="37" x2="28" y2="55" stroke="black" stroke-width="1.5"/>
  <line x1="52" y1="37" x2="52" y2="55" stroke="black" stroke-width="1.5"/>
  <line x1="68" y1="37" x2="68" y2="55" stroke="black" stroke-width="1.5"/>
  
  <rect x="36" y="42" width="8" height="13" stroke="black" stroke-width="1.5" fill="none"/>
  
  <rect x="10" y="55" width="60" height="6" fill="black" fill-opacity="0.2"/>
  <line x1="10" y1="55" x2="70" y2="55" stroke="black" stroke-width="1.5"/>
  <line x1="10" y1="61" x2="70" y2="61" stroke="black" stroke-width="1.5"/>
  
  <text x="40" y="72" font-family="Arial, sans-serif" font-size="5" text-anchor="middle" font-weight="bold" fill="black">SAHS MUSEUM</text>
  <text x="40" y="78" font-family="Arial, sans-serif" font-size="3" text-anchor="middle" fill="black">EST. 2010</text>
</svg>